<svg width="42px" height="25px" viewBox="0 0 42 25">
    <title>Dev.to</title>
    <defs>
        <polygon id="path-1" points="0.000173333333 -1.77635684e-15 41.6 -1.77635684e-15 41.6 24.4734533 0.000173333333 24.4734533"></polygon>
    </defs>
    <g id="D2:-Sun-Up-Sun-Down" stroke="none" stroke-width="1" fill="none" fill-rule="evenodd">
        <g id="Bio---Sun-Down" transform="translate(-324.000000, -1219.000000)">
            <g id="Dev.to" transform="translate(324.000000, 1219.000000)">
                <mask id="mask-2" fill="white">
                    <use xlink:href="#path-1"></use>
                </mask>
                <g id="Clip-2"></g>
                <path d="M31.7721733,17.9231867 C31.4775067,18.66852 30.66284,19.29252 30.03884,19.29252 C29.72684,19.29252 29.25884,19.03252 28.8775067,18.6147867 C28.32284,18.0618533 28.0975067,17.52452 27.4561733,15.0094533 L25.8961733,9.13518667 L25.1161733,6.24052 L26.4335067,6.24052 C27.12684,6.24052 27.7335067,6.27518667 27.7335067,6.32718667 C27.7335067,6.43118667 29.7441733,14.19652 29.9175067,14.6991867 C29.98684,14.9591867 30.4721733,13.4858533 31.18284,10.71252 L32.32684,6.34452 L33.6095067,6.27518667 C34.30284,6.24052 34.87484,6.27518667 34.87484,6.34452 C34.87484,6.58718667 31.9801733,17.4031867 31.75484,17.9231867 L31.7721733,17.9231867 Z M23.6601733,8.47652 L19.37884,8.47652 L19.37884,11.54452 L22.0135067,11.54452 L22.0135067,13.7631867 L20.7655067,13.83252 L19.4655067,13.88452 L19.4655067,16.9507867 L21.5801733,17.00452 L23.6601733,17.0738533 L23.6601733,19.29252 L20.88684,19.29252 C18.23484,19.29252 18.1135067,19.2734533 17.6455067,18.7707867 L17.1255067,18.2871867 L17.1255067,12.8098533 C17.1255067,7.57518667 17.14284,7.29785333 17.55884,6.77785333 C17.9575067,6.24052 17.9921733,6.24052 20.8175067,6.24052 L23.6601733,6.24052 L23.6601733,8.49385333 L23.6601733,8.47652 Z M14.8375067,17.9578533 C14.07484,18.9631867 13.0001733,19.29252 10.4521733,19.29252 L8.16417333,19.29252 L8.16417333,6.22318667 L10.59084,6.22318667 C13.4855067,6.22318667 14.33484,6.53518667 15.0975067,7.78318667 C15.5655067,8.52852 15.6001733,8.82318667 15.6521733,12.2378533 C15.73884,16.1031867 15.6175067,16.9698533 14.8375067,17.9578533 L14.8375067,17.9578533 Z M0.000173333333,24.4734533 L41.6001733,24.4734533 L41.6001733,-0.00121333333 L0.000173333333,-0.00121333333 L0.000173333333,24.4734533 Z M12.8615067,8.85785333 C12.5495067,8.58052 12.0641733,8.45918667 11.4055067,8.45918667 L10.4001733,8.45918667 L10.43484,12.6867867 L10.5041733,16.9351867 L11.47484,16.90052 C12.1855067,16.90052 12.56684,16.7791867 12.9135067,16.44812 C13.3295067,16.0338533 13.3641733,15.8258533 13.3641733,12.63652 C13.3641733,9.32585333 13.3295067,9.23918667 12.8615067,8.85785333 L12.8615067,8.85785333 Z" id="Fill-1" fill="#000000" mask="url(#mask-2)"></path>
            </g>
        </g>
    </g>
</svg>